{
	"asset":{
		"generator":"Khronos glTF Blender I/O v5.0.21",
		"version":"2.0"
	},
	"scene":0,
	"scenes":[
		{
			"name":"Scene",
			"nodes":[
				0,
				2,
				5,
				6,
				7
			]
		}
	],
	"nodes":[
		{
			"mesh":0,
			"name":"DoorFrame",
			"translation":[
				1.239898920059204,
				1.578131914138794,
				-0.0650089681148529
			]
		},
		{
			"mesh":1,
			"name":"HandleL",
			"translation":[
				0.9094133973121643,
				0.0699462890625,
				-0.002088487148284912
			]
		},
		{
			"children":[
				1
			],
			"mesh":2,
			"name":"DoorL",
			"translation":[
				-1.0270459651947021,
				1.595165729522705,
				-0.15875640511512756
			]
		},
		{
			"mesh":3,
			"name":"HandleR",
			"translation":[
				-0.9323753714561462,
				0.06994760036468506,
				-0.002088576555252075
			]
		},
		{
			"mesh":4,
			"name":"Lock",
			"translation":[
				-1.0270462036132812,
				0.20876431465148926,
				-0.051163509488105774
			]
		},
		{
			"children":[
				3,
				4
			],
			"mesh":5,
			"name":"DoorR",
			"translation":[
				1.0270464420318604,
				1.595165729522705,
				-0.15875640511512756
			]
		},
		{
			"mesh":6,
			"name":"EyeLeft",
			"translation":[
				-0.2916609048843384,
				4.401399612426758,
				0.04628777503967285
			]
		},
		{
			"mesh":7,
			"name":"EyeRight",
			"translation":[
				0.29166102409362793,
				4.401401996612549,
				0.04628776013851166
			]
		}
	],
	"meshes":[
		{
			"name":"Cadre.005",
			"primitives":[
				{
					"attributes":{
						"POSITION":0,
						"NORMAL":1,
						"TEXCOORD_0":2
					},
					"indices":3
				}
			]
		},
		{
			"name":"Plane.001",
			"primitives":[
				{
					"attributes":{
						"POSITION":4,
						"NORMAL":5,
						"TEXCOORD_0":6
					},
					"indices":7
				}
			]
		},
		{
			"name":"Cube.006",
			"primitives":[
				{
					"attributes":{
						"POSITION":8,
						"NORMAL":9,
						"TEXCOORD_0":10
					},
					"indices":11
				}
			]
		},
		{
			"name":"Plane.006",
			"primitives":[
				{
					"attributes":{
						"POSITION":12,
						"NORMAL":13,
						"TEXCOORD_0":14
					},
					"indices":15
				}
			]
		},
		{
			"name":"Cube.005",
			"primitives":[
				{
					"attributes":{
						"POSITION":16,
						"NORMAL":17,
						"TEXCOORD_0":18
					},
					"indices":19
				}
			]
		},
		{
			"name":"Cube.007",
			"primitives":[
				{
					"attributes":{
						"POSITION":20,
						"NORMAL":21,
						"TEXCOORD_0":22
					},
					"indices":23
				}
			]
		},
		{
			"name":"Mesh",
			"primitives":[
				{
					"attributes":{
						"POSITION":24,
						"NORMAL":25,
						"TEXCOORD_0":26
					},
					"indices":27
				}
			]
		},
		{
			"name":"Mesh",
			"primitives":[
				{
					"attributes":{
						"POSITION":28,
						"NORMAL":29,
						"TEXCOORD_0":30
					},
					"indices":31
				}
			]
		}
	],
	"accessors":[
		{
			"bufferView":0,
			"componentType":5126,
			"count":45739,
			"max":[
				0.2610487937927246,
				3.2772858142852783,
				0.43067312240600586
			],
			"min":[
				-2.740846633911133,
				-1.719215750694275,
				-0.5558176636695862
			],
			"type":"VEC3"
		},
		{
			"bufferView":1,
			"componentType":5126,
			"count":45739,
			"type":"VEC3"
		},
		{
			"bufferView":2,
			"componentType":5126,
			"count":45739,
			"type":"VEC2"
		},
		{
			"bufferView":3,
			"componentType":5123,
			"count":129798,
			"type":"SCALAR"
		},
		{
			"bufferView":4,
			"componentType":5126,
			"count":1093,
			"max":[
				0.05385882407426834,
				0.0849662721157074,
				0.14134147763252258
			],
			"min":[
				-0.40861743688583374,
				-0.087615966796875,
				-2.0056962966918945e-05
			],
			"type":"VEC3"
		},
		{
			"bufferView":5,
			"componentType":5126,
			"count":1093,
			"type":"VEC3"
		},
		{
			"bufferView":6,
			"componentType":5126,
			"count":1093,
			"type":"VEC2"
		},
		{
			"bufferView":7,
			"componentType":5123,
			"count":4284,
			"type":"SCALAR"
		},
		{
			"bufferView":8,
			"componentType":5126,
			"count":9418,
			"max":[
				1.0270462036132812,
				1.3611539602279663,
				0.058432064950466156
			],
			"min":[
				0,
				-1.599496841430664,
				-0.18399634957313538
			],
			"type":"VEC3"
		},
		{
			"bufferView":9,
			"componentType":5126,
			"count":9418,
			"type":"VEC3"
		},
		{
			"bufferView":10,
			"componentType":5126,
			"count":9418,
			"type":"VEC2"
		},
		{
			"bufferView":11,
			"componentType":5123,
			"count":40200,
			"type":"SCALAR"
		},
		{
			"bufferView":12,
			"componentType":5126,
			"count":1093,
			"max":[
				0.4081876873970032,
				0.08496494591236115,
				0.14134129881858826
			],
			"min":[
				-0.054288528859615326,
				-0.08761728554964066,
				-2.008676528930664e-05
			],
			"type":"VEC3"
		},
		{
			"bufferView":13,
			"componentType":5126,
			"count":1093,
			"type":"VEC3"
		},
		{
			"bufferView":14,
			"componentType":5126,
			"count":1093,
			"type":"VEC2"
		},
		{
			"bufferView":15,
			"componentType":5123,
			"count":4284,
			"type":"SCALAR"
		},
		{
			"bufferView":16,
			"componentType":5126,
			"count":174,
			"max":[
				0.13739195466041565,
				-0.3071563243865967,
				0.07952717691659927
			],
			"min":[
				0.008867956697940826,
				-0.4355865716934204,
				0.03796814754605293
			],
			"type":"VEC3"
		},
		{
			"bufferView":17,
			"componentType":5126,
			"count":174,
			"type":"VEC3"
		},
		{
			"bufferView":18,
			"componentType":5126,
			"count":174,
			"type":"VEC2"
		},
		{
			"bufferView":19,
			"componentType":5123,
			"count":696,
			"type":"SCALAR"
		},
		{
			"bufferView":20,
			"componentType":5126,
			"count":9421,
			"max":[
				0,
				1.3611539602279663,
				0.058432091027498245
			],
			"min":[
				-1.0270462036132812,
				-1.599496841430664,
				-0.18399637937545776
			],
			"type":"VEC3"
		},
		{
			"bufferView":21,
			"componentType":5126,
			"count":9421,
			"type":"VEC3"
		},
		{
			"bufferView":22,
			"componentType":5126,
			"count":9421,
			"type":"VEC2"
		},
		{
			"bufferView":23,
			"componentType":5123,
			"count":40200,
			"type":"SCALAR"
		},
		{
			"bufferView":24,
			"componentType":5126,
			"count":712,
			"max":[
				0.18608427047729492,
				0.18608641624450684,
				0.19258546829223633
			],
			"min":[
				-0.18608418107032776,
				-0.18608209490776062,
				-0.19258545339107513
			],
			"type":"VEC3"
		},
		{
			"bufferView":25,
			"componentType":5126,
			"count":712,
			"type":"VEC3"
		},
		{
			"bufferView":26,
			"componentType":5126,
			"count":712,
			"type":"VEC2"
		},
		{
			"bufferView":27,
			"componentType":5123,
			"count":2880,
			"type":"SCALAR"
		},
		{
			"bufferView":28,
			"componentType":5126,
			"count":788,
			"max":[
				0.18608424067497253,
				0.18608427047729492,
				0.19258545339107513
			],
			"min":[
				-0.18608424067497253,
				-0.18608424067497253,
				-0.19258545339107513
			],
			"type":"VEC3"
		},
		{
			"bufferView":29,
			"componentType":5126,
			"count":788,
			"type":"VEC3"
		},
		{
			"bufferView":30,
			"componentType":5126,
			"count":788,
			"type":"VEC2"
		},
		{
			"bufferView":31,
			"componentType":5123,
			"count":2880,
			"type":"SCALAR"
		}
	],
	"bufferViews":[
		{
			"buffer":0,
			"byteLength":548868,
			"byteOffset":0,
			"target":34962
		},
		{
			"buffer":0,
			"byteLength":548868,
			"byteOffset":548868,
			"target":34962
		},
		{
			"buffer":0,
			"byteLength":365912,
			"byteOffset":1097736,
			"target":34962
		},
		{
			"buffer":0,
			"byteLength":259596,
			"byteOffset":1463648,
			"target":34963
		},
		{
			"buffer":0,
			"byteLength":13116,
			"byteOffset":1723244,
			"target":34962
		},
		{
			"buffer":0,
			"byteLength":13116,
			"byteOffset":1736360,
			"target":34962
		},
		{
			"buffer":0,
			"byteLength":8744,
			"byteOffset":1749476,
			"target":34962
		},
		{
			"buffer":0,
			"byteLength":8568,
			"byteOffset":1758220,
			"target":34963
		},
		{
			"buffer":0,
			"byteLength":113016,
			"byteOffset":1766788,
			"target":34962
		},
		{
			"buffer":0,
			"byteLength":113016,
			"byteOffset":1879804,
			"target":34962
		},
		{
			"buffer":0,
			"byteLength":75344,
			"byteOffset":1992820,
			"target":34962
		},
		{
			"buffer":0,
			"byteLength":80400,
			"byteOffset":2068164,
			"target":34963
		},
		{
			"buffer":0,
			"byteLength":13116,
			"byteOffset":2148564,
			"target":34962
		},
		{
			"buffer":0,
			"byteLength":13116,
			"byteOffset":2161680,
			"target":34962
		},
		{
			"buffer":0,
			"byteLength":8744,
			"byteOffset":2174796,
			"target":34962
		},
		{
			"buffer":0,
			"byteLength":8568,
			"byteOffset":2183540,
			"target":34963
		},
		{
			"buffer":0,
			"byteLength":2088,
			"byteOffset":2192108,
			"target":34962
		},
		{
			"buffer":0,
			"byteLength":2088,
			"byteOffset":2194196,
			"target":34962
		},
		{
			"buffer":0,
			"byteLength":1392,
			"byteOffset":2196284,
			"target":34962
		},
		{
			"buffer":0,
			"byteLength":1392,
			"byteOffset":2197676,
			"target":34963
		},
		{
			"buffer":0,
			"byteLength":113052,
			"byteOffset":2199068,
			"target":34962
		},
		{
			"buffer":0,
			"byteLength":113052,
			"byteOffset":2312120,
			"target":34962
		},
		{
			"buffer":0,
			"byteLength":75368,
			"byteOffset":2425172,
			"target":34962
		},
		{
			"buffer":0,
			"byteLength":80400,
			"byteOffset":2500540,
			"target":34963
		},
		{
			"buffer":0,
			"byteLength":8544,
			"byteOffset":2580940,
			"target":34962
		},
		{
			"buffer":0,
			"byteLength":8544,
			"byteOffset":2589484,
			"target":34962
		},
		{
			"buffer":0,
			"byteLength":5696,
			"byteOffset":2598028,
			"target":34962
		},
		{
			"buffer":0,
			"byteLength":5760,
			"byteOffset":2603724,
			"target":34963
		},
		{
			"buffer":0,
			"byteLength":9456,
			"byteOffset":2609484,
			"target":34962
		},
		{
			"buffer":0,
			"byteLength":9456,
			"byteOffset":2618940,
			"target":34962
		},
		{
			"buffer":0,
			"byteLength":6304,
			"byteOffset":2628396,
			"target":34962
		},
		{
			"buffer":0,
			"byteLength":5760,
			"byteOffset":2634700,
			"target":34963
		}
	],
	"buffers":[
		{
			"byteLength":2640460,
			"uri":"Door02.bin"
		}
	]
}
